# xmcd CD database file
#
# Track frame offsets:
#	187
#	19180
#	67350
#	84187
#	115515
#	140757
#	165390
#
# Disc length: 2705 seconds
#
# Revision: 1
# Processed by: cddbd v1.5.1PL0 Copyright (c) Steve Scherf et al.
# Submitted via: CDex 1.50
#
DISCID=560a8f07
DTITLE=John Coltrane - Ballads Of John Coltrane
DYEAR=1965
DGENRE=Jazz
TTITLE0=After The Rain
TTITLE1=Dear Old Stockholm
TTITLE2=Greensleeves
TTITLE3=Nature Boy
TTITLE4=Dear Lord
TTITLE5=Welcome
TTITLE6=I Want To Talk About You
EXTD=YEAR: 1965
EXTT0=
EXTT1=
EXTT2=
EXTT3=
EXTT4=
EXTT5=
EXTT6=
PLAYORDER=
